HIERARCHY
ROOT Hips
{
	OFFSET 53.236801 -7.512225 93.565399
	CHANNELS 6 Xposition Yposition Zposition Xrotation Yrotation Zrotation
	JOINT spine
	{
		OFFSET 0.000000 -0.429886 7.475601
		CHANNELS 3 Xrotation Yrotation Zrotation
		JOINT spine1
		{
			OFFSET 0.000000 -0.000001 9.923012
			CHANNELS 3 Xrotation Yrotation Zrotation
			JOINT spine2
			{
				OFFSET 0.000000 -0.000001 9.508041
				CHANNELS 3 Xrotation Yrotation Zrotation
				JOINT Neck
				{
					OFFSET 0.000000 -1.163845 24.411095
					CHANNELS 3 Xrotation Yrotation Zrotation
					JOINT Head
					{
						OFFSET 0.000000 -0.000001 7.375229
						CHANNELS 3 Xrotation Yrotation Zrotation
						End Site
						{
							OFFSET 0.000000 5.887407 17.852203
						}
					}
				}
				JOINT RightShoulder
				{
					OFFSET -4.003559 0.557466 10.267906
					CHANNELS 3 Xrotation Yrotation Zrotation
					JOINT RightArm
					{
						OFFSET 0.000000 -0.000002 13.467300
						CHANNELS 3 Xrotation Yrotation Zrotation
						JOINT RightArmRoll
						{
							OFFSET 0.000000 -0.000001 6.798584
							CHANNELS 3 Xrotation Yrotation Zrotation
							JOINT RightForeArm
							{
								OFFSET 0.000000 -0.000003 19.801804
								CHANNELS 3 Xrotation Yrotation Zrotation
								JOINT RightForeArmRoll
								{
									OFFSET 0.000000 -0.000001 7.629044
									CHANNELS 3 Xrotation Yrotation Zrotation
									JOINT RightHand
									{
										OFFSET 0.000000 -0.000002 15.309799
										CHANNELS 3 Xrotation Yrotation Zrotation
										End Site
										{
											OFFSET 0.000000 0.000000 0.100006
										}
									}
								}
							}
						}
					}
				}
				JOINT LeftShoulder
				{
					OFFSET 4.003559 0.557466 10.267906
					CHANNELS 3 Xrotation Yrotation Zrotation
					JOINT LeftArm
					{
						OFFSET 0.000000 -0.000002 13.467300
						CHANNELS 3 Xrotation Yrotation Zrotation
						JOINT LeftArmRoll
						{
							OFFSET 0.000000 -0.000001 6.798569
							CHANNELS 3 Xrotation Yrotation Zrotation
							JOINT LeftForeArm
							{
								OFFSET 0.000000 -0.000003 19.801804
								CHANNELS 3 Xrotation Yrotation Zrotation
								JOINT LeftForeArmRoll
								{
									OFFSET 0.000000 -0.000001 7.629044
									CHANNELS 3 Xrotation Yrotation Zrotation
									JOINT LeftHand
									{
										OFFSET 0.000000 -0.000002 15.309799
										CHANNELS 3 Xrotation Yrotation Zrotation
										End Site
										{
											OFFSET 0.000000 0.000000 0.100006
										}
									}
								}
							}
						}
					}
				}
			}
		}
	}
	JOINT RightUpLeg
	{
		OFFSET -6.626091 1.019270 -1.215050
		CHANNELS 3 Xrotation Yrotation Zrotation
		JOINT RightUpLegRoll
		{
			OFFSET 0.000000 -0.000003 17.951698
			CHANNELS 3 Xrotation Yrotation Zrotation
			JOINT RightLeg
			{
				OFFSET 0.000000 0.000004 -22.230400
				CHANNELS 3 Xrotation Yrotation Zrotation
				JOINT RightLegRoll
				{
					OFFSET 0.000000 -0.000004 22.303200
					CHANNELS 3 Xrotation Yrotation Zrotation
					JOINT RightFoot
					{
						OFFSET 0.000000 -0.000003 18.563599
						CHANNELS 3 Xrotation Yrotation Zrotation
						JOINT RightToeBase
						{
							OFFSET 0.000000 -0.000002 15.518295
							CHANNELS 3 Xrotation Yrotation Zrotation
							End Site
							{
								OFFSET 0.006577 0.866261 7.515396
							}
						}
					}
				}
			}
		}
	}
	JOINT LeftUpLeg
	{
		OFFSET 6.626091 1.019270 -1.215050
		CHANNELS 3 Xrotation Yrotation Zrotation
		JOINT LeftUpLegRoll
		{
			OFFSET 0.000000 -0.000003 17.951797
			CHANNELS 3 Xrotation Yrotation Zrotation
			JOINT LeftLeg
			{
				OFFSET 0.000000 -0.000003 22.230293
				CHANNELS 3 Xrotation Yrotation Zrotation
				JOINT LeftLegRoll
				{
					OFFSET 0.000000 -0.000004 22.509308
					CHANNELS 3 Xrotation Yrotation Zrotation
					JOINT LeftFoot
					{
						OFFSET 0.000000 -0.000003 18.357498
						CHANNELS 3 Xrotation Yrotation Zrotation
						JOINT LeftToeBase
						{
							OFFSET 0.000000 -0.000003 15.518295
							CHANNELS 3 Xrotation Yrotation Zrotation
							End Site
							{
								OFFSET -0.029476 0.866262 7.515396
							}
						}
					}
				}
			}
		}
	}
}
MOTION
Frames: 11
Frame Time: 0.041667
53.374901 -8.922912 93.705009 -1.344200 1.238809 1.248447 -1.894723 -0.071096 -0.014472 0.213348 -0.141843 -0.030593 1.858415 -0.142198 -0.028892 24.047768 1.010090 0.050349 0.834041 -1.842875 0.307004 -13.743637 -32.553464 -15.153517 33.700850 -51.801435 76.561100 0.000005 0.000006 0.000018 2.345778 3.694941 -1.331416 -0.000001 -0.000007 -3.000022 -5.000163 -7.999909 0.000005 -13.912208 39.874856 15.720155 30.270623 48.733478 -68.570414 0.000006 -0.000008 0.000006 3.229582 -3.747077 0.604055 0.000010 -0.000007 2.999996 -5.000153 7.999969 -0.000001 -1.001663 176.674509 -3.131939 -179.999991 0.000005 -1.006998 173.059126 -1.653800 -0.468293 -0.000005 0.000002 0.097302 69.579724 6.846483 2.200054 25.456971 -7.355619 0.000001 -1.880741 178.492801 2.832286 -0.000004 0.000011 -1.014360 -7.869225 2.264654 0.381080 -0.000003 -0.000001 -0.114399 69.932934 -6.824835 -2.228708 25.456950 7.355613 -0.000011 
53.378399 -8.913305 93.705696 -1.349344 1.236927 1.248564 -1.893480 -0.070446 -0.013410 0.215830 -0.140672 -0.028535 1.860896 -0.141000 -0.026847 24.032000 0.975762 0.050670 0.851192 -1.791963 0.300158 -13.747633 -32.558354 -15.159379 33.695512 -51.805923 76.552603 0.000005 0.000006 0.000017 2.347568 3.692887 -1.331457 -0.000003 -0.000007 -3.000021 -5.000163 -7.999908 0.000003 -13.908966 39.869378 15.715644 30.264254 48.728632 -68.568570 0.000006 -0.000008 0.000004 3.217836 -3.749666 0.603747 0.000009 -0.000007 3.000001 -5.000154 7.999967 -0.000001 -0.998840 176.676503 -3.129848 -179.999991 0.000005 -1.007994 173.054795 -1.654775 -0.468539 -0.000006 0.000002 0.097495 69.582156 6.846478 2.200003 25.456972 -7.355619 0.000001 -1.875735 178.495806 2.834636 -0.000005 0.000011 -1.014360 -7.869171 2.262307 0.380931 -0.000003 -0.000001 -0.114348 69.931875 -6.824837 -2.228673 25.456950 7.355613 -0.000010 
53.367401 -8.930171 93.706802 -1.355746 1.234864 1.247933 -1.892031 -0.069866 -0.012225 0.218729 -0.139568 -0.025959 1.863796 -0.139864 -0.024281 24.012681 0.933440 0.051226 0.875298 -1.725389 0.291493 -13.751654 -32.561865 -15.165154 33.690393 -51.811933 76.543977 0.000005 0.000006 0.000020 2.349315 3.690655 -1.331499 -0.000003 -0.000006 -3.000020 -5.000163 -7.999909 0.000008 -13.904932 39.865191 15.710144 30.253015 48.726419 -68.561357 0.000006 -0.000007 0.000004 3.212148 -3.750805 0.603493 0.000009 -0.000007 3.000000 -5.000154 7.999967 0.000000 -0.995094 176.678498 -3.127399 -179.999991 0.000005 -1.007994 173.049427 -1.655745 -0.468814 -0.000005 0.000002 0.097671 69.585018 6.846492 2.199929 25.456969 -7.355619 0.000002 -1.868561 178.498798 2.836860 -0.000005 0.000011 -1.014370 -7.868148 2.260073 0.380789 -0.000003 -0.000001 -0.114297 69.930393 -6.824858 -2.228668 25.456950 7.355614 -0.000011 
53.369499 -8.922694 93.705299 -1.363224 1.232641 1.246632 -1.890400 -0.069349 -0.010933 0.221991 -0.138526 -0.022932 1.867056 -0.138785 -0.021264 23.990232 0.884552 0.051951 0.905208 -1.645755 0.281266 -13.755475 -32.564108 -15.170735 33.685243 -51.819221 76.535152 0.000005 0.000006 0.000020 2.351003 3.688281 -1.331544 -0.000002 -0.000006 -3.000026 -5.000164 -7.999909 0.000009 -13.900179 39.861988 15.703718 30.237719 48.726310 -68.549500 0.000006 -0.000007 0.000005 3.211828 -3.750687 0.603284 0.000009 -0.000007 2.999999 -5.000154 7.999968 0.000004 -0.990554 176.680492 -3.124667 -179.999991 0.000005 -1.007995 173.043211 -1.656727 -0.469117 -0.000005 0.000002 0.097831 69.588406 6.846492 2.199921 25.456971 -7.355619 0.000002 -1.859494 178.501776 2.838946 -0.000005 0.000011 -1.014380 -7.866244 2.257944 0.380652 -0.000002 -0.000001 -0.114247 69.928501 -6.824864 -2.228685 25.456948 7.355614 -0.000011 
53.364399 -8.954288 93.708496 -1.371603 1.230297 1.244776 -1.888620 -0.068889 -0.009550 0.225561 -0.137544 -0.019525 1.870626 -0.137764 -0.017865 23.965372 0.830512 0.052787 0.939802 -1.555661 0.269732 -13.759381 -32.565358 -15.176286 33.680223 -51.827530 76.526163 0.000005 0.000006 0.000022 2.352650 3.685801 -1.331576 -0.000001 -0.000006 -3.000023 -5.000164 -7.999909 0.000002 -13.894989 39.859840 15.696692 30.218768 48.728178 -68.533695 0.000006 -0.000007 0.000009 3.216152 -3.749472 0.603108 0.000010 -0.000007 3.000001 -5.000154 7.999967 0.000003 -0.985360 176.682487 -3.121682 -179.999991 0.000005 -1.007994 173.036204 -1.657692 -0.469440 -0.000005 0.000002 0.097978 69.592108 6.846507 2.199893 25.456965 -7.355619 0.000002 -1.848818 178.504781 2.840929 -0.000005 0.000011 -1.014380 -7.863572 2.255908 0.380520 -0.000002 -0.000001 -0.114197 69.926179 -6.824894 -2.228733 25.456952 7.355614 -0.000011 
53.363602 -8.948485 93.707901 -1.380738 1.227853 1.242433 -1.886711 -0.068481 -0.008091 0.229382 -0.136617 -0.015805 1.874456 -0.136794 -0.014151 23.938609 0.772740 0.053675 0.977938 -1.457738 0.257158 -13.763250 -32.565618 -15.181721 33.675268 -51.836764 76.517031 0.000005 0.000006 0.000022 2.354256 3.683247 -1.331611 -0.000000 -0.000007 -3.000024 -5.000164 -7.999909 0.000002 -13.889162 39.858453 15.688972 30.196686 48.731566 -68.514434 0.000006 -0.000009 0.000002 3.224412 -3.747356 0.602958 0.000010 -0.000008 2.999997 -5.000153 7.999967 -0.000001 -0.979643 176.684495 -3.118487 -179.999991 0.000005 -1.007994 173.028568 -1.659645 -0.469902 -0.000005 0.000002 0.098113 69.596240 6.846501 2.199836 25.456972 -7.355619 0.000002 -1.836812 178.507759 2.842800 -0.000005 0.000011 -1.014390 -7.860238 2.253954 0.380392 -0.000002 -0.000001 -0.114148 69.923631 -6.824881 -2.228788 25.456953 7.355614 -0.000011 
53.358898 -8.950242 93.707909 -1.390427 1.225339 1.239700 -1.884713 -0.068117 -0.006573 0.233399 -0.135742 -0.011841 1.878465 -0.135874 -0.010193 23.910759 0.712654 0.054556 1.018474 -1.354566 0.243820 -13.767014 -32.565194 -15.187037 33.670449 -51.846808 76.508077 0.000005 0.000006 0.000018 2.355831 3.680666 -1.331661 -0.000001 -0.000006 -3.000017 -5.000164 -7.999909 0.000007 -13.883091 39.857794 15.680933 30.172303 48.736234 -68.492543 0.000006 -0.000008 0.000007 3.235896 -3.744517 0.602849 0.000009 -0.000007 3.000002 -5.000154 7.999967 0.000001 -0.973540 176.686475 -3.115153 -179.999991 0.000005 -1.007994 173.020440 -1.660606 -0.470260 -0.000005 0.000002 0.098237 69.600563 6.846506 2.199772 25.456971 -7.355620 0.000001 -1.823757 178.511748 2.844562 -0.000005 0.000011 -1.014400 -7.856364 2.252073 0.380269 -0.000003 -0.000001 -0.114100 69.920865 -6.824860 -2.228853 25.456953 7.355613 -0.000010 
53.356899 -8.955793 93.706802 -1.400509 1.222794 1.236673 -1.882630 -0.067792 -0.005010 0.237557 -0.134915 -0.007703 1.882625 -0.135001 -0.006059 23.882235 0.651672 0.055387 1.060271 -1.248756 0.230006 -13.770791 -32.564085 -15.192277 33.665627 -51.857501 76.499041 0.000006 0.000006 0.000020 2.357379 3.678084 -1.331693 -0.000001 -0.000006 -3.000020 -5.000164 -7.999909 0.000004 -13.876865 39.857665 15.672694 30.145928 48.741873 -68.468487 0.000006 -0.000008 0.000004 3.249873 -3.741131 0.602747 0.000010 -0.000007 3.000002 -5.000154 7.999968 0.000003 -0.967177 176.689481 -3.111722 -179.999991 0.000005 -1.009004 173.011929 -1.662569 -0.470751 -0.000005 0.000002 0.098352 69.605215 6.846450 2.199773 25.456967 -7.355619 0.000001 -1.809907 178.514739 2.846278 -0.000005 0.000011 -1.014410 -7.852042 2.250244 0.380148 -0.000002 -0.000002 -0.114052 69.917798 -6.824864 -2.228843 25.456948 7.355613 -0.000010 
53.357300 -8.954922 93.706909 -1.410810 1.220240 1.233440 -1.880511 -0.067498 -0.003420 0.241799 -0.134132 -0.003457 1.886875 -0.134173 -0.001817 23.853746 0.591212 0.056121 1.102208 -1.142918 0.216025 -13.774489 -32.562483 -15.197396 33.660788 -51.868603 76.490114 0.000005 0.000006 0.000019 2.358906 3.675551 -1.331735 -0.000001 -0.000006 -3.000021 -5.000163 -7.999909 0.000004 -13.870565 39.857828 15.664373 30.118330 48.748167 -68.443106 0.000006 -0.000009 0.000006 3.265663 -3.737379 0.602672 0.000009 -0.000007 3.000002 -5.000154 7.999968 0.000004 -0.960701 176.691461 -3.108229 -179.999991 0.000005 -1.009005 173.003118 -1.663527 -0.470130 -0.000005 0.000002 0.098459 69.609866 6.846466 2.199691 25.456972 -7.355619 0.000002 -1.795570 178.517731 2.847932 -0.000005 0.000011 -1.014410 -7.847379 2.248476 0.380031 -0.000002 -0.000001 -0.114004 69.914527 -6.824896 -2.228850 25.456955 7.355615 -0.000010 
53.354099 -8.960233 93.710411 -1.421163 1.217705 1.230088 -1.878369 -0.067231 -0.001818 0.246073 -0.133390 0.000825 1.891146 -0.133386 0.002463 23.825790 0.532694 0.056720 1.143141 -1.039653 0.202194 -13.778041 -32.560710 -15.202398 33.656020 -51.880013 76.481344 0.000005 0.000006 0.000021 2.360401 3.673089 -1.331773 -0.000001 -0.000006 -3.000018 -5.000163 -7.999909 0.000002 -13.864332 39.858289 15.656170 30.089944 48.754782 -68.416974 0.000006 -0.000008 0.000008 3.282525 -3.733442 0.602599 0.000010 -0.000008 3.000001 -5.000153 7.999969 0.000002 -0.954240 176.693469 -3.104726 -179.999991 0.000005 -1.009004 172.994171 -1.665475 -0.470633 -0.000005 0.000002 0.098561 69.614634 6.846486 2.199598 25.456969 -7.355619 0.000002 -1.781014 178.520709 2.849533 -0.000005 0.000011 -1.014420 -7.842486 2.246729 0.379913 -0.000003 -0.000001 -0.113958 69.911132 -6.824887 -2.228859 25.456952 7.355613 -0.000011 
53.356998 -8.946653 93.708611 -1.431392 1.215221 1.226713 -1.876250 -0.066984 -0.000220 0.250320 -0.132686 0.005077 1.895395 -0.132638 0.006712 23.798975 0.477535 0.057151 1.181929 -0.941544 0.188853 -13.781666 -32.558631 -15.207346 33.651184 -51.891546 76.472751 0.000005 0.000006 0.000017 2.361899 3.670737 -1.331813 -0.000001 -0.000006 -3.000021 -5.000164 -7.999909 0.000005 -13.858394 39.858908 15.648312 30.061408 48.761424 -68.390725 0.000005 -0.000007 0.000006 3.299756 -3.729505 0.602535 0.000009 -0.000007 3.000000 -5.000154 7.999968 0.000006 -0.947933 176.695450 -3.101252 -179.999991 0.000005 -1.009005 172.985209 -1.666446 -0.471017 -0.000005 0.000002 0.098659 69.619401 6.846505 2.199608 25.456971 -7.355619 0.000002 -1.766516 178.524698 2.851075 -0.000005 0.000011 -1.014430 -7.837472 2.245023 0.379799 -0.000002 -0.000001 -0.113912 69.907731 -6.824848 -2.228960 25.456953 7.355613 -0.000011 
